<?xml version="1.0" encoding="UTF-8"?><svg xmlns="http://www.w3.org/2000/svg" xmlns:xlink="http://www.w3.org/1999/xlink" contentScriptType="text/ecmascript" fill="#000000" width="235.8" zoomAndPan="magnify" contentStyleType="text/css" viewBox="0.0 0.0 235.8 380.1" height="380.1" preserveAspectRatio="xMidYMid meet" version="1"><defs><clipPath id="a"><path d="M 0 0 L 235.808594 0 L 235.808594 380.128906 L 0 380.128906 Z M 0 0"/></clipPath></defs><g><g id="change1_1"><path fill="#50745f" d="M 108.179688 336.167969 C 108.621094 336.835938 112.160156 337.980469 117.902344 337.980469 C 123.664062 337.980469 127.207031 336.828125 127.628906 336.164062 L 127.628906 209.164062 C 124.425781 209.460938 121.183594 209.617188 117.902344 209.617188 C 114.625 209.617188 111.382812 209.460938 108.179688 209.164062 Z M 107.179688 208.621094 L 128.628906 208.621094 L 128.628906 337 C 128.628906 337 182.605469 353.34375 189.757812 360.492188 C 196.902344 367.640625 189.757812 373.769531 189.757812 373.769531 C 189.757812 373.769531 176.222656 379.128906 117.902344 379.128906 C 59.585938 379.128906 46.054688 373.769531 46.054688 373.769531 C 46.054688 373.769531 38.902344 367.640625 46.054688 360.492188 C 53.203125 353.34375 107.179688 337 107.179688 337 Z M 117.902344 208.621094 C 62.726562 208.621094 17.609375 165.566406 14.296875 111.21875 C 14.167969 109.097656 14.09375 106.964844 14.09375 104.8125 C 14.09375 102.65625 14.167969 100.523438 14.296875 98.402344 C 17.609375 44.058594 62.726562 1.003906 117.902344 1.003906 C 173.085938 1.003906 218.199219 44.058594 221.511719 98.402344 C 221.640625 100.523438 221.714844 102.65625 221.714844 104.8125 C 221.714844 106.964844 221.640625 109.097656 221.511719 111.21875 C 218.199219 165.566406 173.085938 208.621094 117.902344 208.621094"/></g><g id="change2_1"><path fill="#f7f4e6" d="M 209.945312 104.8125 C 209.945312 155.644531 168.738281 196.855469 117.902344 196.855469 C 67.070312 196.855469 25.863281 155.644531 25.863281 104.8125 C 25.863281 53.976562 67.070312 12.769531 117.902344 12.769531 C 168.738281 12.769531 209.945312 53.976562 209.945312 104.8125"/></g><g id="change3_1"><path fill="#ced8be" d="M 8.914062 98.402344 L 8.914062 111.21875 L 14.296875 111.21875 C 14.167969 109.097656 14.09375 106.964844 14.09375 104.8125 C 14.09375 102.65625 14.167969 100.523438 14.296875 98.402344 Z M 221.511719 98.402344 C 221.640625 100.523438 221.714844 102.65625 221.714844 104.8125 C 221.714844 106.964844 221.640625 109.097656 221.511719 111.21875 L 226.894531 111.21875 L 226.894531 98.402344 Z M 108.179688 209.164062 L 108.179688 336.167969 C 108.621094 336.835938 112.160156 337.980469 117.902344 337.980469 C 123.664062 337.980469 127.207031 336.828125 127.628906 336.164062 L 127.628906 209.164062 C 124.425781 209.460938 121.183594 209.617188 117.902344 209.617188 C 114.625 209.617188 111.382812 209.460938 108.179688 209.164062 Z M 63.332031 178.929688 C 66.035156 180.925781 68.851562 182.777344 71.769531 184.472656 L 174.167969 31.96875 C 171.507812 29.910156 168.734375 27.996094 165.855469 26.234375 Z M 155.53125 20.789062 L 54.386719 171.425781 C 49.605469 166.863281 45.3125 161.789062 41.597656 156.296875 L 136.679688 14.6875 C 143.246094 16.050781 149.558594 18.109375 155.53125 20.789062"/></g><g id="change4_1" clip-path="url(#a)"><path fill="#3b4c42" d="M 117.902344 13.769531 C 168.105469 13.769531 208.945312 54.609375 208.945312 104.8125 C 208.945312 155.011719 168.105469 195.855469 117.902344 195.855469 C 67.703125 195.855469 26.863281 155.011719 26.863281 104.8125 C 26.863281 54.609375 67.703125 13.769531 117.902344 13.769531 Z M 117.902344 197.855469 C 169.207031 197.855469 210.945312 156.113281 210.945312 104.8125 C 210.945312 53.507812 169.207031 11.769531 117.902344 11.769531 C 66.601562 11.769531 24.863281 53.507812 24.863281 104.8125 C 24.863281 156.113281 66.601562 197.855469 117.902344 197.855469 Z M 129.628906 216.476562 L 129.628906 208.960938 C 179.503906 203.382812 218.90625 162.671875 222.445312 112.21875 L 226.894531 112.21875 L 226.894531 116.652344 C 226.894531 118.289062 227.789062 119.707031 229.109375 120.480469 C 222.136719 171.171875 181.769531 211.082031 129.628906 216.476562 Z M 189.046875 361.199219 C 191.035156 363.183594 192.003906 365.25 191.929688 367.335938 C 191.824219 370.21875 189.753906 372.386719 189.226562 372.894531 C 187.542969 373.46875 172.117188 378.128906 117.902344 378.128906 C 63.859375 378.128906 48.257812 373.457031 46.578125 372.894531 C 46.046875 372.386719 43.992188 370.242188 43.878906 367.355469 C 43.871094 367.15625 43.882812 366.960938 43.894531 366.765625 C 48.660156 368.109375 66.863281 371.992188 117.902344 371.992188 C 118.457031 371.992188 118.902344 371.542969 118.902344 370.992188 C 118.902344 370.441406 118.457031 369.992188 117.902344 369.992188 C 66.789062 369.992188 48.605469 365.988281 44.316406 364.796875 C 44.777344 363.578125 45.585938 362.371094 46.761719 361.199219 C 53.445312 354.511719 103.808594 339.074219 107.28125 338.015625 C 108.621094 338.945312 110.96875 339.4375 113.132812 339.695312 C 113.230469 339.726562 113.324219 339.753906 113.433594 339.753906 C 113.460938 339.753906 113.488281 339.742188 113.515625 339.738281 C 115.605469 339.964844 117.441406 339.980469 117.902344 339.980469 C 118.363281 339.980469 120.203125 339.964844 122.289062 339.738281 C 122.320312 339.742188 122.34375 339.753906 122.375 339.753906 C 122.480469 339.753906 122.578125 339.726562 122.675781 339.695312 C 124.839844 339.4375 127.1875 338.945312 128.527344 338.015625 C 132.003906 339.078125 182.359375 354.511719 189.046875 361.199219 Z M 6.707031 120.480469 C 8.019531 119.703125 8.914062 118.285156 8.914062 116.652344 L 8.914062 112.21875 L 13.359375 112.21875 C 16.902344 162.671875 56.308594 203.382812 106.179688 208.960938 L 106.179688 216.480469 C 54.113281 211.082031 13.699219 171.039062 6.707031 120.480469 Z M 13.234375 110.21875 L 8.914062 110.21875 L 8.914062 99.402344 L 13.234375 99.402344 C 13.140625 101.195312 13.09375 102.996094 13.09375 104.8125 C 13.09375 106.625 13.140625 108.429688 13.234375 110.21875 Z M 108.179688 336.171875 L 108.179688 209.164062 C 109.589844 209.292969 111.007812 209.402344 112.433594 209.476562 L 112.433594 337.585938 C 109.949219 337.191406 108.460938 336.585938 108.179688 336.171875 Z M 117.902344 337.980469 C 116.632812 337.980469 115.476562 337.921875 114.433594 337.828125 L 114.433594 209.554688 C 115.585938 209.59375 116.742188 209.617188 117.902344 209.617188 C 119.066406 209.617188 120.222656 209.59375 121.375 209.554688 L 121.375 337.828125 C 120.328125 337.921875 119.175781 337.980469 117.902344 337.980469 Z M 127.628906 336.164062 C 127.363281 336.578125 125.871094 337.1875 123.375 337.582031 L 123.375 209.476562 C 124.800781 209.402344 126.21875 209.292969 127.628906 209.164062 Z M 117.902344 2.003906 C 174.59375 2.003906 220.714844 48.121094 220.714844 104.8125 C 220.714844 159.964844 177.054688 205.105469 122.484375 207.511719 C 122.445312 207.507812 122.414062 207.488281 122.375 207.488281 C 122.320312 207.488281 122.269531 207.511719 122.21875 207.523438 C 120.785156 207.582031 119.347656 207.617188 117.902344 207.617188 C 116.457031 207.617188 115.019531 207.582031 113.589844 207.523438 C 113.535156 207.511719 113.488281 207.488281 113.433594 207.488281 C 113.394531 207.488281 113.359375 207.507812 113.324219 207.511719 C 58.753906 205.105469 15.09375 159.964844 15.09375 104.8125 C 15.09375 48.121094 61.214844 2.003906 117.902344 2.003906 Z M 226.894531 99.402344 L 226.894531 110.21875 L 222.574219 110.21875 C 222.664062 108.429688 222.714844 106.625 222.714844 104.8125 C 222.714844 102.996094 222.664062 101.195312 222.574219 99.402344 Z M 231.351562 88.511719 C 228.894531 88.511719 226.894531 90.511719 226.894531 92.972656 L 226.894531 97.402344 L 222.445312 97.402344 C 218.632812 43.054688 173.203125 0.00390625 117.902344 0.00390625 C 62.601562 0.00390625 17.175781 43.054688 13.359375 97.402344 L 8.914062 97.402344 L 8.914062 92.972656 C 8.914062 90.511719 6.914062 88.511719 4.457031 88.511719 C 2 88.511719 0 90.511719 0 92.972656 L 0 116.652344 C 0 118.492188 1.125 120.078125 2.722656 120.757812 C 5.902344 143.863281 15.960938 165.53125 31.835938 182.992188 C 51.179688 204.277344 77.527344 217.59375 106.019531 220.488281 L 106.179688 218.886719 L 106.179688 336.261719 C 99.503906 338.300781 52.222656 352.910156 45.347656 359.785156 C 43.796875 361.332031 42.769531 362.953125 42.257812 364.625 C 42.128906 364.730469 42.011719 364.859375 41.945312 365.023438 C 41.835938 365.300781 41.867188 365.589844 41.988281 365.832031 C 41.90625 366.363281 41.859375 366.894531 41.882812 367.429688 C 42.042969 371.601562 45.265625 374.410156 45.402344 374.527344 C 45.484375 374.597656 45.582031 374.65625 45.683594 374.695312 C 46.246094 374.917969 60.058594 380.128906 117.902344 380.128906 C 175.75 380.128906 189.5625 374.917969 190.121094 374.695312 C 190.226562 374.65625 190.320312 374.597656 190.40625 374.527344 C 190.542969 374.410156 193.765625 371.601562 193.925781 367.429688 C 194.027344 364.757812 192.863281 362.1875 190.460938 359.785156 C 183.585938 352.910156 136.304688 338.300781 129.628906 336.261719 L 129.628906 220.496094 C 158.015625 217.652344 184.273438 204.488281 203.644531 183.351562 C 219.710938 165.824219 229.886719 144.027344 233.089844 120.757812 C 234.683594 120.078125 235.808594 118.492188 235.808594 116.652344 L 235.808594 92.972656 C 235.808594 90.511719 233.808594 88.511719 231.351562 88.511719"/></g></g></svg>