<?xml version="1.0" encoding="UTF-8"?><svg xmlns="http://www.w3.org/2000/svg" xmlns:xlink="http://www.w3.org/1999/xlink" contentScriptType="text/ecmascript" fill="#000000" width="291.6" zoomAndPan="magnify" contentStyleType="text/css" viewBox="152.0 42.0 291.6 511.1" height="511.1" preserveAspectRatio="xMidYMid meet" version="1"><g><g id="change1_1"><path fill="#845551" d="M 296.902344 546.507812 C 296.902344 546.507812 296.902344 550.65625 261.3125 550.65625 C 225.722656 550.65625 225.722656 546.507812 225.722656 546.507812 L 225.722656 47.121094 C 225.722656 47.121094 234.703125 48.15625 261.3125 48.15625 C 287.921875 48.15625 296.902344 47.121094 296.902344 47.121094 L 296.902344 546.507812"/></g><g id="change2_1"><path fill="#3b4c42" d="M 228.222656 545.390625 C 229.976562 546.1875 236.800781 548.15625 261.3125 548.15625 C 285.824219 548.15625 292.648438 546.1875 294.402344 545.390625 L 294.402344 49.84375 C 290.011719 50.152344 280.007812 50.65625 261.3125 50.65625 C 242.617188 50.65625 232.613281 50.152344 228.222656 49.84375 Z M 261.3125 553.15625 C 246.363281 553.15625 235.691406 552.4375 229.601562 551.015625 C 227.859375 550.609375 223.222656 549.53125 223.222656 546.507812 L 223.222656 47.121094 C 223.222656 46.410156 223.527344 45.730469 224.058594 45.257812 C 224.589844 44.78125 225.296875 44.554688 226.007812 44.636719 C 226.097656 44.648438 235.25 45.65625 261.3125 45.65625 C 287.378906 45.65625 296.527344 44.648438 296.617188 44.636719 C 297.328125 44.554688 298.035156 44.78125 298.566406 45.257812 C 299.097656 45.730469 299.402344 46.410156 299.402344 47.121094 L 299.402344 546.507812 C 299.402344 549.53125 294.769531 550.609375 293.023438 551.015625 C 286.933594 552.4375 276.265625 553.15625 261.3125 553.15625"/></g><g id="change3_1"><path fill="#f7f4e6" d="M 296.902344 279.847656 L 225.722656 279.847656 L 225.722656 255.433594 L 296.902344 255.433594 L 296.902344 279.847656"/></g><g id="change2_2"><path fill="#3b4c42" d="M 228.222656 277.347656 L 294.402344 277.347656 L 294.402344 257.933594 L 228.222656 257.933594 Z M 296.902344 282.347656 L 225.722656 282.347656 C 224.339844 282.347656 223.222656 281.230469 223.222656 279.847656 L 223.222656 255.433594 C 223.222656 254.050781 224.339844 252.933594 225.722656 252.933594 L 296.902344 252.933594 C 298.285156 252.933594 299.402344 254.050781 299.402344 255.433594 L 299.402344 279.847656 C 299.402344 281.230469 298.285156 282.347656 296.902344 282.347656"/></g><g id="change3_2"><path fill="#f7f4e6" d="M 296.902344 342.34375 L 225.722656 342.34375 L 225.722656 317.929688 L 296.902344 317.929688 L 296.902344 342.34375"/></g><g id="change2_3"><path fill="#3b4c42" d="M 228.222656 339.84375 L 294.402344 339.84375 L 294.402344 320.429688 L 228.222656 320.429688 Z M 296.902344 344.84375 L 225.722656 344.84375 C 224.339844 344.84375 223.222656 343.726562 223.222656 342.34375 L 223.222656 317.929688 C 223.222656 316.546875 224.339844 315.429688 225.722656 315.429688 L 296.902344 315.429688 C 298.285156 315.429688 299.402344 316.546875 299.402344 317.929688 L 299.402344 342.34375 C 299.402344 343.726562 298.285156 344.84375 296.902344 344.84375"/></g><g id="change4_1"><path fill="#ced8be" d="M 225.722656 546.507812 C 225.722656 546.507812 225.722656 550.65625 190.128906 550.65625 C 154.539062 550.65625 154.539062 546.507812 154.539062 546.507812 L 154.539062 47.121094 C 154.539062 47.121094 163.519531 48.15625 190.128906 48.15625 C 216.742188 48.15625 225.722656 47.121094 225.722656 47.121094 L 225.722656 546.507812"/></g><g id="change2_4"><path fill="#3b4c42" d="M 157.039062 545.390625 C 158.792969 546.1875 165.617188 548.15625 190.128906 548.15625 C 214.640625 548.15625 221.464844 546.1875 223.222656 545.390625 L 223.222656 49.84375 C 218.828125 50.152344 208.824219 50.65625 190.128906 50.65625 C 171.4375 50.65625 161.429688 50.152344 157.039062 49.84375 Z M 190.128906 553.15625 C 175.179688 553.15625 164.511719 552.4375 158.421875 551.015625 C 156.675781 550.609375 152.039062 549.53125 152.039062 546.507812 L 152.039062 47.121094 C 152.039062 46.410156 152.34375 45.730469 152.875 45.257812 C 153.40625 44.78125 154.117188 44.554688 154.824219 44.636719 C 154.914062 44.648438 164.066406 45.65625 190.128906 45.65625 C 216.195312 45.65625 225.347656 44.648438 225.4375 44.636719 C 226.144531 44.554688 226.851562 44.78125 227.386719 45.257812 C 227.917969 45.730469 228.222656 46.410156 228.222656 47.121094 L 228.222656 546.507812 C 228.222656 549.53125 223.585938 550.609375 221.839844 551.015625 C 215.75 552.4375 205.082031 553.15625 190.128906 553.15625"/></g><g id="change5_1"><path fill="#f7f4e6" d="M 225.722656 279.847656 L 154.539062 279.847656 L 154.539062 255.433594 L 225.722656 255.433594 L 225.722656 279.847656"/></g><g id="change2_5"><path fill="#3b4c42" d="M 157.039062 277.347656 L 223.222656 277.347656 L 223.222656 257.933594 L 157.039062 257.933594 Z M 225.722656 282.347656 L 154.539062 282.347656 C 153.15625 282.347656 152.039062 281.230469 152.039062 279.847656 L 152.039062 255.433594 C 152.039062 254.050781 153.15625 252.933594 154.539062 252.933594 L 225.722656 252.933594 C 227.101562 252.933594 228.222656 254.050781 228.222656 255.433594 L 228.222656 279.847656 C 228.222656 281.230469 227.101562 282.347656 225.722656 282.347656"/></g><g id="change5_2"><path fill="#f7f4e6" d="M 225.722656 342.34375 L 154.539062 342.34375 L 154.539062 317.929688 L 225.722656 317.929688 L 225.722656 342.34375"/></g><g id="change2_6"><path fill="#3b4c42" d="M 157.039062 339.84375 L 223.222656 339.84375 L 223.222656 320.429688 L 157.039062 320.429688 Z M 225.722656 344.84375 L 154.539062 344.84375 C 153.15625 344.84375 152.039062 343.726562 152.039062 342.34375 L 152.039062 317.929688 C 152.039062 316.546875 153.15625 315.429688 154.539062 315.429688 L 225.722656 315.429688 C 227.101562 315.429688 228.222656 316.546875 228.222656 317.929688 L 228.222656 342.34375 C 228.222656 343.726562 227.101562 344.84375 225.722656 344.84375"/></g><g id="change4_2"><path fill="#ced8be" d="M 440.738281 538.582031 C 440.738281 538.582031 441.347656 542.6875 406.144531 547.917969 C 370.9375 553.152344 370.328125 549.050781 370.328125 549.050781 L 296.902344 55.089844 C 296.902344 55.089844 305.941406 54.796875 332.261719 50.882812 C 358.582031 46.96875 367.3125 44.625 367.3125 44.625 L 440.738281 538.582031"/></g><g id="change2_7"><path fill="#3b4c42" d="M 372.636719 547.5625 C 373.421875 547.777344 375.171875 548.078125 378.746094 548.078125 C 384.925781 548.078125 394.023438 547.195312 405.777344 545.445312 C 430.019531 541.84375 436.480469 538.890625 438.101562 537.847656 L 365.238281 47.683594 C 360.941406 48.636719 351.121094 50.605469 332.628906 53.355469 C 314.136719 56.105469 304.164062 57.074219 299.777344 57.414062 Z M 378.746094 553.078125 C 371.492188 553.078125 368.238281 551.984375 367.855469 549.417969 L 294.429688 55.457031 C 294.324219 54.753906 294.527344 54.035156 294.984375 53.488281 C 295.441406 52.941406 296.109375 52.617188 296.820312 52.59375 C 296.910156 52.589844 306.113281 52.242188 331.894531 48.410156 C 357.675781 44.578125 366.578125 42.234375 366.664062 42.210938 C 367.351562 42.023438 368.089844 42.144531 368.683594 42.535156 C 369.277344 42.925781 369.679688 43.550781 369.785156 44.257812 L 443.210938 538.21875 C 443.652344 541.203125 439.226562 542.953125 437.5625 543.613281 C 431.746094 545.914062 421.300781 548.195312 406.511719 550.390625 C 394.515625 552.175781 385.171875 553.078125 378.746094 553.078125"/></g><g id="change5_3"><path fill="#f7f4e6" d="M 401.53125 274.824219 L 331.121094 285.289062 L 327.53125 261.136719 L 397.941406 250.671875 L 401.53125 274.824219"/></g><g id="change2_8"><path fill="#3b4c42" d="M 330.371094 263.242188 L 333.226562 282.449219 L 398.691406 272.71875 L 395.835938 253.511719 Z M 331.117188 287.789062 C 329.902344 287.789062 328.835938 286.898438 328.648438 285.65625 L 325.058594 261.503906 C 324.960938 260.847656 325.128906 260.179688 325.523438 259.648438 C 325.917969 259.117188 326.507812 258.761719 327.164062 258.664062 L 397.574219 248.199219 C 398.230469 248.097656 398.898438 248.269531 399.429688 248.664062 C 399.960938 249.058594 400.316406 249.648438 400.414062 250.304688 L 404.003906 274.453125 C 404.207031 275.820312 403.265625 277.09375 401.898438 277.296875 L 331.488281 287.761719 C 331.363281 287.78125 331.242188 287.789062 331.117188 287.789062"/></g><g id="change5_4"><path fill="#f7f4e6" d="M 410.71875 336.640625 L 340.3125 347.105469 L 336.722656 322.953125 L 407.128906 312.488281 L 410.71875 336.640625"/></g><g id="change2_9"><path fill="#3b4c42" d="M 339.5625 325.058594 L 342.414062 344.265625 L 407.878906 334.535156 L 405.023438 315.328125 Z M 340.3125 349.605469 C 339.777344 349.605469 339.253906 349.433594 338.820312 349.113281 C 338.289062 348.71875 337.9375 348.128906 337.839844 347.472656 L 334.246094 323.320312 C 334.046875 321.957031 334.988281 320.683594 336.355469 320.480469 L 406.761719 310.015625 C 407.417969 309.917969 408.085938 310.085938 408.617188 310.480469 C 409.152344 310.875 409.503906 311.464844 409.601562 312.121094 L 413.191406 336.273438 C 413.394531 337.636719 412.453125 338.910156 411.085938 339.113281 L 340.679688 349.578125 C 340.554688 349.597656 340.433594 349.605469 340.3125 349.605469"/></g></g></svg>