<?xml version="1.0" encoding="UTF-8"?><svg xmlns="http://www.w3.org/2000/svg" xmlns:xlink="http://www.w3.org/1999/xlink" contentScriptType="text/ecmascript" fill="#000000" width="1922.2" zoomAndPan="magnify" contentStyleType="text/css" viewBox="-1.1 -0.9 1922.2 1083.7" height="1083.7" preserveAspectRatio="xMidYMid meet" version="1"><g><g id="change1_1"><path fill="#f7f4e6" d="M46.22,661.06L255.7,540V299.09L48.45,265.87L46.22,661.06z M63.18,284.72l185,23.06v226.44l-185,98.69 V284.72z"/></g><path fill="none" d="M46.22 661.06L255.7 540 255.7 299.09 48.45 265.87z"/><g id="change2_1"><path fill="#d2ae95" d="M0,0v1080h1920V0H0z M255.7,540L46.22,661.06l2.23-395.19l207.25,33.22V540z M1639.35,544V303.09 l207.25-33.22l2.23,395.19L1639.35,544z"/></g><g id="change1_2"><path fill="#f7f4e6" d="M1639.35,303.09V544l209.48,121.06l-2.23-395.19L1639.35,303.09z M1831.88,636.92l-185-98.69V311.78 l185-23.06V636.92z"/></g></g><g><path fill="none" stroke-width="2" stroke-miterlimit="10" d="M1588.18 146.83L1920 0" stroke="#00273f"/><path fill="none" stroke-width="2" stroke-miterlimit="10" d="M307.23 146.83L0 0" stroke="#00273f"/><g id="change1_3"><path fill="#f7f4e6" d="M1588.18 146.83L307.23 146.83 0 0 1920 0 1588.18 146.83"/></g><g id="change3_1"><path fill="#d2ae95" d="M307.23 146.83H1588.18V763.6800000000001H307.23z"/></g><g id="change4_1"><path fill="#ced8be" d="M307.23 763.68L1588.18 763.68 1920 1080 0 1080 307.23 763.68"/></g><path fill="none" stroke-width="2" stroke-miterlimit="10" d="M1588.18 763.68L1920 1080" stroke="#00273f"/><path fill="none" stroke-width="2" stroke-miterlimit="10" d="M1588.18 146.83L1920 0" stroke="#00273f"/><path fill="none" stroke-width="2" stroke-miterlimit="10" d="M0 0L307.23 146.83" stroke="#00273f"/><path fill="none" stroke-width="2" stroke-miterlimit="10" d="M0 1080L307.23 763.68" stroke-linecap="round" stroke="#00273f"/><path fill="none" stroke-width="2" stroke-miterlimit="10" d="M947.71 763.68L947.71 1080" stroke="#f7f4e6"/><path fill="none" stroke-width="2" stroke-miterlimit="10" d="M1155.97 764.25L1223.69 1079.43" stroke="#f7f4e6"/><path fill="none" stroke-width="2" stroke-miterlimit="10" d="M1357.06 764.25L1544.61 1079.43" stroke="#f7f4e6"/><path fill="none" stroke-width="2" stroke-miterlimit="10" d="M733.9 767.09L666.18 1082.27" stroke="#f7f4e6"/><path fill="none" stroke-width="2" stroke-miterlimit="10" d="M532.81 767.09L345.25 1082.27" stroke="#f7f4e6"/><path fill="none" stroke-width="2" stroke-miterlimit="10" d="M237.8 835.16L1663.17 835.16" stroke="#f7f4e6"/><path fill="none" stroke-width="2" stroke-miterlimit="10" d="M120.27 956.17L1790.1 956.17" stroke="#f7f4e6"/><path fill="none" stroke-width="2" stroke-miterlimit="10" d="M46.22 661.06L255.7 540 255.7 299.09 48.45 265.87z" stroke="#00273f"/><path fill="none" stroke-width="2" stroke-miterlimit="10" d="M48.45 265.87L40.42 265.87 36.96 661.06 46.22 661.06" stroke="#00273f"/><path fill="none" stroke-width="2" stroke-miterlimit="10" d="M1652.63 825.12L1807.62 972.87" stroke="#00273f"/><path fill="none" stroke-width="2" stroke-miterlimit="10" d="M1848.83 665.06L1639.35 544 1639.35 303.09 1846.6 269.87z" stroke="#00273f"/><path fill="none" stroke-width="2" stroke-miterlimit="10" d="M1846.6 269.87L1854.63 269.87 1858.09 665.06 1848.83 665.06" stroke="#00273f"/><path fill="none" stroke-width="2" stroke-miterlimit="10" d="M63.18 284.72L248.17 307.78 248.17 534.22 63.18 632.92z" stroke="#00273f"/><path fill="none" stroke-width="2" stroke-miterlimit="10" d="M170.54 298.1L170.54 575.64" stroke="#00273f"/><path fill="none" stroke-width="2" stroke-miterlimit="10" d="M63.18 455.25L248.17 419.35" stroke="#00273f"/><path fill="none" stroke-width="2" stroke-miterlimit="10" d="M1724.51 301.72L1724.51 579.26" stroke="#00273f"/><path fill="none" stroke-width="2" stroke-miterlimit="10" d="M1831.88 458.87L1646.88 422.97" stroke="#00273f"/><path fill="none" stroke-width="2" stroke-miterlimit="10" d="M1646.88 311.78L1831.88 288.72 1831.88 636.92 1646.88 538.22z" stroke="#00273f"/><g id="change2_2"><path fill="#d2ae95" d="M1588.18 146.83L307.23 763.68 1588.18 763.68z"/></g></g><g fill="none" stroke-width="2" stroke-miterlimit="10" stroke="#00273f"><path d="M307.23 146.83H1588.18V763.6800000000001H307.23z"/><path stroke-linecap="round" d="M1920 1036.13L1588.18 727.61 307.23 727.61 0 1036.13"/></g></svg>