<?xml version="1.0" encoding="UTF-8"?><svg xmlns="http://www.w3.org/2000/svg" xmlns:xlink="http://www.w3.org/1999/xlink" contentScriptType="text/ecmascript" fill="#000000" width="239.8" zoomAndPan="magnify" contentStyleType="text/css" viewBox="-0.1 -0.1 239.8 159.1" height="159.1" preserveAspectRatio="xMidYMid meet" version="1"><g><g id="change1_1"><path fill="#f7f4e6" d="M0.5 0.5H239.7V158.51H0.5z"/></g><g id="change2_1"><path fill="#50745f" d="M7.62 8.34H232.1V150.67000000000002H7.62z"/></g></g><g><g id="change3_2"><path fill="#3b4c42" d="M0.5,159.01c-0.12,0-0.24-0.04-0.34-0.13c-0.2-0.19-0.22-0.5-0.03-0.71l6.99-7.7V8.54l-6.99-7.7 c-0.19-0.2-0.17-0.52,0.03-0.71c0.2-0.18,0.52-0.17,0.71,0.03l7.25,7.99v142.71l-7.25,7.99C0.77,158.96,0.64,159.01,0.5,159.01z"/></g><g id="change3_1"><path fill="#3b4c42" d="M239.22,159.01c-0.14,0-0.27-0.06-0.37-0.16l-7.25-7.99V8.15l7.25-7.99c0.19-0.2,0.5-0.22,0.71-0.03 c0.2,0.19,0.22,0.5,0.03,0.71l-6.99,7.7v141.94l6.99,7.7c0.19,0.2,0.17,0.52-0.03,0.71C239.46,158.97,239.34,159.01,239.22,159.01 z"/></g><g id="change3_4"><path fill="#3b4c42" d="M232.1,8.84H7.62c-0.28,0-0.5-0.22-0.5-0.5s0.22-0.5,0.5-0.5H232.1c0.28,0,0.5,0.22,0.5,0.5 S232.38,8.84,232.1,8.84z"/></g><g id="change4_1"><path fill="#50745f" d="M69.71 14.13H168.42V27.96H69.71z"/></g><g id="change5_1"><circle fill="#90ac8e" r="1.44" cx="73.53" cy="21.05"/></g><g id="change5_2"><circle fill="#90ac8e" r="1.44" cx="163.54" cy="21.05"/></g><g id="change3_3"><path fill="#3b4c42" d="M168.91,28.46H69.71c-0.28,0-0.5-0.22-0.5-0.5s0.22-0.5,0.5-0.5h98.21V14.14c0-0.28,0.22-0.5,0.5-0.5 s0.5,0.22,0.5,0.5V28.46z"/></g></g></svg>