<?xml version="1.0" encoding="UTF-8"?><svg xmlns="http://www.w3.org/2000/svg" xmlns:xlink="http://www.w3.org/1999/xlink" contentScriptType="text/ecmascript" fill="#000000" width="396.1" zoomAndPan="magnify" contentStyleType="text/css" viewBox="-0.7 0.0 396.1 500.0" height="500" preserveAspectRatio="xMidYMid meet" version="1"><g><g id="change1_1"><path fill="#f7f4e6" d="M 353.898438 113 C 354.601562 120.898438 355.300781 129 355.699219 137.300781 C 358.5 186.199219 355.101562 229.898438 349.398438 266.898438 C 347 282.300781 336.898438 295.300781 322.5 301.199219 C 295.898438 312.199219 258.800781 324.300781 213.898438 330 C 213.398438 330 212.800781 330 212.300781 330.101562 C 210.898438 330.199219 209.5 330.199219 208.101562 330.300781 C 207.699219 330.300781 207.300781 330.300781 206.898438 330.300781 C 205.199219 330.398438 203.5 330.398438 201.800781 330.398438 C 201.601562 330.398438 201.398438 330.398438 201.101562 330.398438 C 193.898438 330.5 186.5 330.398438 178.898438 330.101562 C 177.101562 330 175.300781 330 173.5 329.898438 C 116.101562 327 68.898438 312.699219 35.101562 298.898438 C 20 292.699219 9.5 278.800781 7.898438 262.601562 C 4.300781 227.601562 2.300781 188.601562 3.398438 146.300781 C 4 121 5.699219 97.101562 8 74.699219 C 9.601562 59.300781 19.199219 45.898438 33.101562 39.300781 C 37.5 37.300781 42.101562 35.101562 47.199219 33 C 48.300781 32.601562 49.398438 32.101562 50.5 31.601562 C 56.800781 29 63.699219 26.398438 70.898438 23.898438 C 72 23.5 73.101562 23.101562 74.300781 22.800781 C 75.398438 22.398438 76.601562 22 77.699219 21.699219 C 78.800781 21.300781 79.898438 21 81 20.601562 C 81.101562 20.601562 81.101562 20.601562 81.199219 20.5 C 82.300781 20.101562 83.5 19.800781 84.601562 19.398438 C 85.800781 19 87.101562 18.601562 88.398438 18.300781 C 90.800781 17.601562 93.101562 16.898438 95.601562 16.300781 C 96.898438 15.898438 98.300781 15.601562 99.601562 15.199219 C 100.601562 14.898438 101.699219 14.699219 102.699219 14.398438 C 104.601562 13.898438 106.5 13.5 108.398438 13 C 110.699219 12.398438 113 11.898438 115.398438 11.398438 C 116.601562 11.101562 117.898438 10.898438 119.101562 10.601562 C 123.398438 9.699219 127.699219 8.898438 132.101562 8.199219 C 133.5 8 135 7.699219 136.398438 7.5 C 137.800781 7.300781 139.199219 7.101562 140.601562 6.898438 C 140.699219 6.898438 140.800781 6.898438 140.898438 6.898438 C 142.199219 6.699219 143.5 6.5 144.800781 6.398438 C 145 6.398438 145.101562 6.398438 145.300781 6.300781 C 147.101562 6.101562 149 5.800781 150.800781 5.601562 C 150.898438 5.601562 151.101562 5.601562 151.199219 5.601562 C 152.898438 5.398438 154.5 5.199219 156.199219 5 C 156.800781 4.898438 157.398438 4.898438 157.898438 4.800781 C 159.601562 4.601562 161.300781 4.5 163 4.300781 C 163.398438 4.300781 163.699219 4.199219 164.101562 4.199219 C 165.300781 4.101562 166.5 4 167.699219 3.898438 C 168.898438 3.800781 170.101562 3.699219 171.398438 3.601562 C 173.199219 3.5 175.101562 3.398438 177 3.300781 C 178.699219 3.199219 180.398438 3.101562 182.199219 3.101562 L 182.300781 3.101562 C 184.398438 3 186.5 3 188.699219 2.898438 L 188.800781 2.898438 C 190.898438 2.898438 193.101562 2.800781 195.300781 2.800781 L 197.5 2.800781 C 199.601562 2.800781 201.699219 2.800781 203.800781 2.898438 C 205.300781 2.898438 206.800781 3 208.300781 3 C 224.5 3.601562 239.898438 5.101562 254.398438 7.398438 C 298.5 14.398438 334.101562 28 358.699219 39.800781 C 367 43.800781 373.699219 50.101562 378.199219 57.898438 C 380.898438 62.601562 382.699219 67.699219 383.601562 73.199219 C 383.800781 74.800781 384.101562 76.300781 384.300781 77.898438 C 384.5 79.5 384.800781 81.101562 385 82.699219 L 351.398438 90.601562 C 351.398438 90.300781 351.300781 90 351.300781 89.699219 C 352.300781 97.300781 353.101562 105.101562 353.898438 113"/></g><g id="change2_1"><path fill="#90ac8e" d="M 349 76.800781 C 348.101562 73 347.101562 69.5 346 66.300781 C 351.601562 64.800781 357.101562 63.300781 362.699219 61.699219 C 330 69.300781 292.300781 75.601562 250.398438 78.199219 C 153.898438 84.199219 73.101562 68.699219 16.699219 52.5 C 72.898438 59.898438 139.199219 64 213.101562 60.5 C 250 58.699219 284.5 55.199219 316.398438 50.699219 C 324.699219 49.5 326.601562 38.398438 319.300781 34.5 C 315.199219 32.300781 311.601562 30.601562 308.699219 29.199219 C 274.300781 13.199219 239.5 8.199219 198.898438 2.398438 C 198.800781 2.398438 198.5 2.300781 198.398438 2.300781 C 221.101562 3.199219 240.101562 5.5 254.398438 7.699219 C 254.398438 7.699219 308.601562 16.199219 358.699219 40.101562 C 366.898438 44 373.5 50.199219 378 57.800781 C 378.300781 57.699219 378.601562 57.601562 378.898438 57.601562 L 385 83 C 387.300781 99.199219 389 116.398438 390.101562 134.5 C 392.800781 183.300781 389.398438 227 383.800781 263.898438 C 381.398438 279.300781 371.300781 292.300781 356.898438 298.199219 C 323.800781 311.800781 274.5 327.199219 213.898438 330 C 258.898438 324.300781 295.898438 312.199219 322.5 301.199219 C 336.898438 295.300781 347.101562 282.300781 349.398438 266.898438 C 355.101562 230 358.398438 186.199219 355.699219 137.300781 C 354.800781 121 353.300781 105.5 351.300781 90.699219 M 351.300781 90.699219 C 350.898438 86.5 350.101562 81.800781 349 76.800781"/></g><g id="change3_1"><path fill="#3b4c42" d="M 355.699219 295.5 C 343.800781 300.398438 331.800781 304.699219 319.601562 308.5 C 305.5 312.898438 291.300781 316.5 276.898438 319.398438 C 276.699219 319.398438 276.5 319.5 276.300781 319.5 C 255.699219 323.601562 234.699219 326.101562 213.601562 327.101562 C 213.199219 327.101562 212.699219 327.101562 212.300781 327.199219 L 212.101562 327.199219 C 210.699219 327.300781 209.398438 327.300781 207.898438 327.398438 C 207.601562 327.398438 207.199219 327.398438 206.800781 327.398438 C 205.199219 327.5 203.601562 327.5 201.898438 327.5 L 201.601562 327.5 C 201.5 327.5 201.300781 327.5 201.199219 327.5 L 201.101562 327.5 C 194 327.601562 186.601562 327.5 179.101562 327.199219 C 177.398438 327.101562 175.699219 327.101562 174 327 L 173.800781 327 C 126.601562 324.601562 80.398438 314.199219 36.300781 296.199219 C 24 291.199219 15.101562 280.699219 11.898438 268.101562 C 68 291.601562 127.101562 304.199219 187.800781 305.300781 C 190.699219 305.398438 193.601562 305.398438 196.5 305.398438 C 258.898438 305.398438 321.898438 292.800781 379.699219 268.898438 C 376.101562 280.800781 367.300781 290.699219 355.699219 295.5 Z M 359.300781 472.5 C 359.300781 472.699219 359.300781 473 358.898438 473 C 358.5 473.101562 358.398438 472.800781 358.398438 472.601562 L 323.800781 313.398438 C 331.5 311 339.101562 308.300781 346.601562 305.398438 Z M 270.699219 412.101562 C 270.5 415.898438 267.699219 417.5 265.300781 417.699219 C 262.898438 417.898438 259.898438 416.800781 259.101562 413 L 243.199219 330.699219 C 253.601562 329.5 263.898438 327.898438 274.101562 326 Z M 139 490.5 C 138.398438 493.300781 136.199219 494.101562 134.398438 494 C 132.5 493.800781 130.5 492.601562 130.398438 489.800781 L 127.300781 328 C 141.398438 330.300781 155.601562 331.800781 170 332.699219 Z M 53 432.601562 L 65.300781 313.101562 C 70.101562 314.699219 75 316.101562 79.800781 317.5 Z M 34.398438 42 C 39 39.800781 43.699219 37.699219 48.398438 35.800781 C 49.101562 35.5 49.898438 35.199219 50.601562 34.898438 L 51.601562 34.5 C 58.601562 31.601562 65.199219 29.101562 71.898438 26.800781 C 73 26.398438 74.101562 26 75.300781 25.699219 C 76.398438 25.300781 77.5 25 78.699219 24.601562 C 79.300781 24.398438 79.898438 24.199219 80.5 24 L 82 23.5 C 82 23.5 82 23.5 82.101562 23.5 C 82.199219 23.5 82.300781 23.5 82.300781 23.398438 C 83.398438 23.101562 84.5 22.699219 85.601562 22.398438 C 86.800781 22 88 21.699219 89.300781 21.300781 C 91.601562 20.601562 94 19.898438 96.398438 19.300781 C 97.699219 18.898438 99.101562 18.601562 100.398438 18.199219 L 103.5 17.398438 C 105.398438 16.898438 107.300781 16.5 109.199219 16 C 111.5 15.5 113.800781 14.898438 116.199219 14.398438 C 117.398438 14.101562 118.699219 13.898438 119.898438 13.601562 C 124 12.800781 128.300781 11.898438 132.800781 11.199219 C 134.199219 11 135.699219 10.699219 137.101562 10.5 C 138.5 10.300781 139.898438 10.101562 141.300781 9.898438 L 141.5 9.898438 L 145.5 9.300781 C 145.601562 9.300781 145.601562 9.300781 145.800781 9.300781 C 147.601562 9.101562 149.398438 8.800781 151.398438 8.601562 L 151.699219 8.601562 C 153.300781 8.398438 155 8.199219 156.699219 8.101562 L 158.398438 7.898438 C 160.101562 7.699219 161.699219 7.601562 163.5 7.398438 C 163.800781 7.398438 164.101562 7.300781 164.5 7.300781 C 165.699219 7.199219 166.800781 7.101562 168.101562 7 C 169.300781 6.898438 170.398438 6.800781 171.699219 6.699219 C 173.5 6.601562 175.300781 6.5 177.199219 6.398438 C 178.898438 6.300781 180.601562 6.199219 182.199219 6.199219 L 182.5 6.199219 C 184.601562 6.101562 186.699219 6.101562 188.800781 6 C 188.800781 6 188.898438 6 189 6 C 191.101562 6 193.300781 5.898438 195.398438 5.898438 L 197.601562 5.898438 C 199.699219 5.898438 201.800781 5.898438 203.898438 6 C 205.398438 6 206.898438 6.101562 208.398438 6.101562 C 223.601562 6.601562 239 8.101562 254.101562 10.5 C 289.898438 16.199219 324.699219 27 357.601562 42.601562 C 364.101562 45.699219 369.5 50.300781 373.601562 56.101562 C 313.101562 71 250.898438 77.800781 188.800781 76.101562 C 132.5 74.601562 76.5 66.101562 22.199219 51 C 25.5 47.398438 29.699219 44.300781 34.398438 42 Z M 381.601562 80.5 C 328.800781 93.199219 274.601562 100 220.5 100.699219 C 149.898438 101.699219 79.5 92.300781 11.199219 73 C 12.101562 66.898438 14.5 61.101562 17.898438 56.101562 C 73.398438 71.800781 130.800781 80.5 188.398438 82.101562 C 194.699219 82.300781 201.101562 82.398438 207.398438 82.398438 C 264.398438 82.398438 321.199219 75.398438 376.601562 61.601562 C 378.5 65.5 379.898438 69.601562 380.601562 73.898438 L 381.300781 78.601562 C 381.398438 79.199219 381.5 79.898438 381.601562 80.5 Z M 381.101562 261.800781 C 320.300781 287.601562 253.601562 300.5 187.800781 299.300781 C 126.699219 298.101562 67.101562 285.300781 10.699219 261.101562 C 6.898438 223 5.398438 184.398438 6.398438 146.398438 C 7 124 8.398438 101.398438 10.601562 79.101562 C 76 97.5 143.300781 106.898438 210.800781 106.898438 C 214.101562 106.898438 217.300781 106.898438 220.601562 106.800781 C 275 106.101562 329.398438 99.300781 382.398438 86.5 C 384.601562 102.398438 386.101562 118.601562 387 134.5 C 389.398438 176.800781 387.398438 219.601562 381.101562 261.800781 Z M 387.101562 261.601562 C 393.398438 219.300781 395.398438 176.5 393 134.199219 C 392 117 390.300781 99.601562 387.898438 82.398438 C 387.699219 80.800781 387.398438 79.199219 387.199219 77.601562 L 386.5 72.898438 C 385.601562 67.199219 383.699219 61.800781 380.898438 56.800781 C 380.898438 56.699219 380.800781 56.699219 380.800781 56.601562 C 376 48.199219 368.800781 41.5 360 37.300781 C 326.601562 21.398438 291.199219 10.398438 254.898438 4.699219 C 239.601562 2.300781 223.898438 0.800781 208.5 0.199219 C 207 0.101562 205.5 0.101562 204 0.101562 C 201.898438 0.101562 199.800781 0 197.601562 0 L 195.398438 0 C 193.199219 0 191 0 188.699219 0.101562 C 186.5 0.101562 184.398438 0.199219 182.398438 0.300781 L 182.101562 0.300781 C 180.300781 0.398438 178.601562 0.398438 176.898438 0.5 C 175 0.601562 173.101562 0.699219 171.199219 0.800781 C 170 0.898438 168.800781 1 167.601562 1.101562 C 166.398438 1.199219 165.199219 1.300781 164.101562 1.398438 C 163.699219 1.398438 163.199219 1.5 162.898438 1.5 C 161.199219 1.699219 159.5 1.800781 157.800781 2 L 155.898438 2 C 154.199219 2.199219 152.5 2.398438 150.898438 2.601562 L 150.601562 2.601562 C 150.601562 2.601562 150.5 2.601562 150.398438 2.601562 C 148.5 2.800781 146.699219 3.101562 144.898438 3.300781 C 144.699219 3.300781 144.5 3.300781 144.398438 3.398438 L 140.5 3.898438 L 140.199219 3.898438 C 138.800781 4.101562 137.398438 4.300781 136 4.5 C 134.5 4.699219 133.101562 5 131.601562 5.199219 C 127.101562 6 122.601562 6.800781 118.5 7.699219 C 117.199219 8 116 8.199219 114.699219 8.5 C 112.300781 9 109.898438 9.5 107.601562 10.101562 C 105.699219 10.601562 103.699219 11 101.800781 11.5 L 98.699219 12.300781 C 97.300781 12.699219 96 13 94.601562 13.398438 C 92.101562 14.101562 89.699219 14.800781 87.398438 15.398438 C 86.101562 15.800781 84.800781 16.101562 83.601562 16.5 C 82.5 16.800781 81.398438 17.199219 80.199219 17.601562 C 80.101562 17.601562 80 17.699219 79.800781 17.699219 L 78.398438 18.101562 C 77.800781 18.300781 77.199219 18.5 76.5 18.699219 C 75.398438 19.101562 74.199219 19.398438 73.101562 19.800781 C 72 20.199219 70.800781 20.601562 69.699219 21 C 62.898438 23.300781 56.199219 25.898438 49.101562 28.800781 L 48.101562 29.199219 C 47.300781 29.5 46.601562 29.800781 45.800781 30.199219 C 41.101562 32.199219 36.300781 34.300781 31.601562 36.5 C 24.699219 39.699219 18.898438 44.601562 14.300781 50.5 C 14.101562 50.699219 13.898438 50.898438 13.800781 51.199219 C 9.101562 58 5.898438 65.898438 5 74.398438 C 2.5 98.199219 0.898438 122.300781 0.300781 146.199219 C -0.699219 184.898438 0.800781 224.199219 4.800781 262.898438 C 6.601562 280.199219 17.699219 295 33.898438 301.601562 C 42.300781 305.101562 50.898438 308.199219 59.398438 311.101562 L 46.300781 439.398438 C 46 442.398438 47.898438 444.898438 50.898438 445.398438 C 51.199219 445.5 51.601562 445.5 51.898438 445.5 C 54.398438 445.5 56.601562 443.800781 57.199219 441.199219 L 85.699219 319.101562 C 97.5 322.300781 109.398438 324.898438 121.398438 327 L 124.5 489.898438 C 124.601562 495.398438 128.5 499.5 133.898438 500 C 134.199219 500 134.601562 500 134.898438 500 C 139.898438 500 143.898438 496.699219 144.898438 491.699219 L 176 333 C 177 333 177.898438 333.101562 178.898438 333.101562 C 184.300781 333.300781 189.699219 333.398438 194.898438 333.398438 C 197 333.398438 199.101562 333.398438 201.199219 333.300781 C 201.5 333.300781 201.800781 333.300781 201.898438 333.300781 L 202.101562 333.300781 C 203.800781 333.300781 205.398438 333.199219 207 333.199219 C 207.398438 333.199219 207.898438 333.199219 208.300781 333.199219 C 209.699219 333.199219 211.199219 333.101562 212.5 333 L 212.699219 333 C 213.199219 333 213.699219 333 214.101562 332.898438 C 221.898438 332.5 229.601562 332 237.300781 331.199219 L 253.300781 414 C 254.398438 419.800781 259.101562 423.601562 264.800781 423.601562 C 265.101562 423.601562 265.5 423.601562 265.800781 423.601562 C 272 423.101562 276.5 418.5 276.699219 412.300781 L 280.199219 324.800781 C 293 322.199219 305.601562 319 318.101562 315.199219 L 352.601562 473.898438 C 353.300781 477 355.800781 479 358.800781 479 C 359.101562 479 359.5 479 359.800781 478.898438 C 363.300781 478.398438 365.601562 475.5 365.300781 472 L 352.398438 303.199219 C 354.300781 302.5 356.101562 301.699219 358 301 C 372.699219 295 383.5 281.601562 386.398438 266 C 387.601562 265.199219 388.101562 263.699219 387.5 262.300781 C 387.398438 262.101562 387.300781 261.800781 387.101562 261.601562"/></g></g></svg>