<?xml version="1.0" encoding="UTF-8"?><svg xmlns="http://www.w3.org/2000/svg" xmlns:xlink="http://www.w3.org/1999/xlink" contentScriptType="text/ecmascript" fill="#000000" width="330.4" zoomAndPan="magnify" contentStyleType="text/css" viewBox="0.0 0.0 330.4 361.4" height="361.4" preserveAspectRatio="xMidYMid meet" version="1"><g><g id="change1_1"><path fill="#845551" d="M 213.785156 342.214844 L 1 342.214844 L 1 1.003906 L 213.785156 1.003906 L 213.785156 342.214844"/></g><g id="change2_1"><path fill="#f7f4e6" d="M 213.785156 341.65625 L 329.417969 341.65625 L 329.417969 231.574219 L 213.785156 231.574219 Z M 329.417969 1.003906 L 329.417969 120.9375 L 213.785156 120.9375 L 213.785156 1.003906 L 329.417969 1.003906"/></g><g id="change3_1"><path fill="#ced8be" d="M 329.390625 1.003906 L 0.59375 1.003906 L 0.59375 10.296875 L 329.390625 10.296875 Z M 329.417969 121.214844 L 329.417969 231.296875 L 213.785156 231.296875 L 213.785156 121.214844 L 329.417969 121.214844"/></g><g id="change4_1"><path fill="#3b4c42" d="M 295.582031 247.394531 L 295.582031 248.308594 C 295.582031 250.855469 293.511719 252.925781 290.964844 252.925781 L 252.238281 252.925781 C 249.691406 252.925781 247.621094 250.855469 247.621094 248.308594 L 247.621094 247.394531 C 247.621094 244.847656 249.691406 242.777344 252.238281 242.777344 L 290.964844 242.777344 C 293.511719 242.777344 295.582031 244.847656 295.582031 247.394531 Z M 295.582031 136.757812 L 295.582031 137.667969 C 295.582031 140.214844 293.511719 142.289062 290.964844 142.289062 L 252.238281 142.289062 C 249.691406 142.289062 247.621094 140.214844 247.621094 137.667969 L 247.621094 136.757812 C 247.621094 134.210938 249.691406 132.140625 252.238281 132.140625 L 290.964844 132.140625 C 293.511719 132.140625 295.582031 134.210938 295.582031 136.757812 Z M 247.621094 27.03125 L 247.621094 26.117188 C 247.621094 23.570312 249.691406 21.5 252.238281 21.5 L 290.964844 21.5 C 293.511719 21.5 295.582031 23.570312 295.582031 26.117188 L 295.582031 27.03125 C 295.582031 29.578125 293.511719 31.648438 290.964844 31.648438 L 252.238281 31.648438 C 249.691406 31.648438 247.621094 29.578125 247.621094 27.03125 Z M 187.476562 221.988281 L 187.476562 130.523438 C 187.476562 127.976562 189.550781 125.902344 192.097656 125.902344 L 193.007812 125.902344 C 195.554688 125.902344 197.625 127.976562 197.625 130.523438 L 197.625 221.988281 C 197.625 224.535156 195.554688 226.605469 193.007812 226.605469 L 192.097656 226.605469 C 189.550781 226.605469 187.476562 224.535156 187.476562 221.988281 Z M 318.683594 341.214844 C 318.671875 341.210938 318.664062 341.207031 318.65625 341.207031 L 291.421875 341.207031 C 291.40625 341.207031 291.394531 341.210938 291.382812 341.214844 L 214.785156 341.214844 L 214.785156 232.574219 L 328.421875 232.574219 L 328.421875 341.214844 Z M 2 11.296875 L 212.785156 11.296875 L 212.785156 341.214844 L 39.035156 341.214844 C 39.023438 341.210938 39.011719 341.207031 39 341.207031 L 11.765625 341.207031 C 11.753906 341.207031 11.746094 341.210938 11.738281 341.214844 L 2 341.214844 Z M 328.421875 2.003906 L 328.421875 9.296875 L 2 9.296875 L 2 2.003906 Z M 214.785156 121.9375 L 328.421875 121.9375 L 328.421875 230.574219 L 214.785156 230.574219 Z M 328.421875 11.296875 L 328.421875 119.9375 L 214.785156 119.9375 L 214.785156 11.296875 Z M 329.421875 0.00390625 L 1 0.00390625 C 0.449219 0.00390625 0 0.449219 0 1.003906 L 0 342.214844 C 0 342.765625 0.449219 343.214844 1 343.214844 L 10.765625 343.214844 L 10.765625 360.421875 C 10.765625 360.972656 11.210938 361.421875 11.765625 361.421875 L 24.703125 361.421875 C 25.007812 361.421875 25.296875 361.277344 25.488281 361.039062 L 39.480469 343.214844 L 290.9375 343.214844 L 304.933594 361.039062 C 305.121094 361.277344 305.410156 361.421875 305.71875 361.421875 L 318.65625 361.421875 C 319.207031 361.421875 319.65625 360.972656 319.65625 360.421875 L 319.65625 343.214844 L 329.421875 343.214844 C 329.972656 343.214844 330.421875 342.765625 330.421875 342.214844 L 330.421875 1.003906 C 330.421875 0.449219 329.972656 0.00390625 329.421875 0.00390625"/></g></g></svg>